<?xml version="1.0" standalone="no"?>
<!DOCTYPE svg PUBLIC "-//W3C//DTD SVG 20010904//EN"
 "http://www.w3.org/TR/2001/REC-SVG-20010904/DTD/svg10.dtd">
<svg version="1.0" xmlns="http://www.w3.org/2000/svg"
 width="198.000000pt" height="152.000000pt" viewBox="0 0 198.000000 152.000000"
 preserveAspectRatio="xMidYMid meet">
<metadata>
Created by potrace 1.10, written by Peter Selinger 2001-2011
</metadata>
<g transform="translate(0.000000,152.000000) scale(0.100000,-0.100000)"
fill="#000000" stroke="none">
<path d="M1592 1023 c-19 -7 -42 -58 -42 -93 0 -19 9 -40 25 -55 53 -54 135
-15 135 65 0 66 -58 107 -118 83z m87 -40 c7 -15 8 -43 2 -75 0 -4 -8 -14 -17
-22 -17 -17 -63 -12 -76 8 -12 18 -9 81 4 94 19 19 76 15 87 -5z"/>
<path d="M1425 940 c-49 -19 -49 -19 -10 -12 22 4 57 6 78 5 26 -1 37 3 37 13
0 19 -44 17 -105 -6z"/>
<path d="M1249 889 c-17 -17 -20 -29 -15 -58 15 -95 136 -95 136 1 0 67 -76
102 -121 57z m73 -11 c24 -20 31 -64 12 -82 -18 -19 -17 -19 -49 -4 -19 8 -25
19 -25 43 0 49 29 69 62 43z"/>
<path d="M1408 893 c-17 -3 -28 -11 -28 -20 0 -11 5 -13 18 -8 9 4 37 13 62
20 44 13 44 13 10 13 -19 -1 -47 -3 -62 -5z"/>
<path d="M1689 846 c-22 -19 -25 -26 -16 -42 6 -10 11 -48 11 -84 0 -79 -28
-145 -82 -191 l-37 -31 33 18 c43 24 95 82 123 136 27 52 31 149 9 190 l-15
26 -26 -22z m31 -68 c0 -32 -3 -39 -10 -28 -13 20 -13 70 0 70 6 0 10 -19 10
-42z"/>
<path d="M256 842 c-3 -5 -8 -43 -12 -85 l-6 -76 37 -7 c20 -3 39 -3 43 1 7 6
-19 30 -41 38 -24 8 3 37 34 37 38 0 35 24 -4 28 -19 2 -27 9 -27 23 0 15 7
19 31 19 20 0 29 4 27 13 -5 14 -74 22 -82 9z"/>
<path d="M354 813 c22 -128 27 -144 42 -132 8 6 14 18 14 25 0 22 18 16 22 -6
2 -12 8 -21 13 -22 13 -2 51 78 59 122 5 33 3 31 -22 -18 -30 -57 -42 -58 -42
-5 0 18 -3 33 -7 33 -17 0 -31 -16 -35 -40 -3 -18 -7 -10 -13 28 -5 36 -12 52
-22 52 -12 0 -14 -8 -9 -37z"/>
<path d="M531 832 c-15 -28 -14 -127 2 -139 35 -29 103 -19 91 12 -3 7 2 39
10 71 15 56 10 84 -12 70 -6 -4 -18 -31 -27 -61 -8 -30 -20 -55 -25 -55 -6 0
-10 21 -10 48 0 60 -13 84 -29 54z m76 -94 c-3 -8 -6 -5 -6 6 -1 11 2 17 5 13
3 -3 4 -12 1 -19z m-30 -34 c-3 -3 -12 -4 -19 -1 -8 3 -5 6 6 6 11 1 17 -2 13
-5z m33 -4 c0 -5 -4 -10 -10 -10 -5 0 -10 5 -10 10 0 6 5 10 10 10 6 0 10 -4
10 -10z"/>
<path d="M671 841 c-7 -5 -11 -13 -7 -19 3 -5 2 -31 -3 -58 -9 -49 -1 -98 13
-75 4 7 11 33 15 59 l8 47 15 -34 c15 -33 16 -34 27 -13 19 35 26 26 23 -30
-2 -51 -2 -52 12 -28 9 14 15 42 16 63 0 21 4 46 9 56 6 11 6 23 0 32 -8 11
-15 8 -37 -18 -28 -32 -28 -32 -45 -13 -9 11 -17 25 -17 30 0 12 -11 13 -29 1z"/>
<path d="M829 843 c-3 -44 -10 -104 -14 -129 -5 -29 -3 -32 26 -38 43 -8 49
-8 49 4 0 6 -11 15 -24 21 -33 16 -24 49 15 49 26 0 52 19 30 21 -6 1 -15 3
-21 4 -5 1 -16 3 -24 4 -25 2 -6 41 20 41 15 0 24 6 24 15 0 11 -11 15 -40 15
-22 0 -40 -3 -41 -7z"/>
<path d="M966 837 c-29 -22 -17 -59 27 -80 21 -10 35 -22 31 -28 -3 -6 -29
-21 -57 -34 -46 -20 -48 -23 -24 -24 38 -1 93 23 106 47 16 29 4 50 -35 64
-37 13 -40 31 -6 36 12 2 22 10 22 18 0 18 -40 18 -64 1z"/>
<path d="M1085 838 c-13 -38 -24 -143 -15 -152 6 -6 12 2 16 22 8 39 12 42 42
31 16 -6 22 -17 23 -41 l1 -33 14 33 c8 18 17 60 19 93 5 54 4 60 -12 57 -14
-3 -17 -11 -15 -40 4 -40 -4 -50 -36 -41 -19 5 -21 10 -16 44 5 27 3 39 -5 39
-6 0 -14 -6 -16 -12z"/>
<path d="M1486 828 c-9 -12 -16 -28 -16 -36 0 -15 45 -62 60 -62 19 0 50 40
50 63 0 51 -66 75 -94 35z m64 -24 c0 -13 1 -27 3 -31 1 -5 -10 -8 -25 -9 -28
-1 -30 2 -30 31 0 29 2 33 27 33 20 0 25 -6 25 -24z"/>
<path d="M1415 780 c-22 -11 -32 -18 -22 -15 11 3 30 8 43 11 13 3 24 10 24
15 0 11 2 12 -45 -11z"/>
<path d="M1250 726 c0 -90 88 -191 185 -211 29 -6 29 -5 -5 10 -19 9 -43 24
-54 33 -27 24 -66 111 -66 148 0 24 -5 33 -22 38 -35 9 -38 8 -38 -18z m37
-43 c-3 -10 -5 -4 -5 12 0 17 2 24 5 18 2 -7 2 -21 0 -30z"/>
<path d="M1573 739 c-8 -8 -7 -20 3 -45 22 -52 18 -106 -12 -150 -24 -35 -24
-37 -4 -19 52 47 75 141 48 200 -12 28 -19 30 -35 14z"/>
</g>
</svg>
